<svg xmlns="http://www.w3.org/2000/svg" viewBox="0 0 800 400" width="100%" height="100%">
  <rect width="800" height="400" fill="#ffffff"/>
  <g transform="translate(400, 200) scale(3.5)">
    <!-- Bridge -->
    <path d="M -20 -15 Q 0 -25 20 -15 L 20 -10 Q 0 -20 -20 -10 Z" fill="#0f172a"/>
    <!-- Left Frame -->
    <path d="M -20 -15 C -40 -20, -70 -20, -85 -5 C -95 10, -85 30, -65 40 C -45 50, -25 40, -15 25 C -5 10, -10 -10, -20 -15 Z M -25 -5 C -15 5, -15 20, -25 30 C -40 40, -60 35, -70 25 C -80 15, -80 0, -65 -5 C -50 -10, -35 -15, -25 -5 Z" fill="#0f172a"/>
    <!-- Right Frame -->
    <path d="M 20 -15 C 40 -20, 70 -20, 85 -5 C 95 10, 85 30, 65 40 C 45 50, 25 40, 15 25 C 5 10, 10 -10, 20 -15 Z M 25 -5 C 15 5, 15 20, 25 30 C 40 40, 60 35, 70 25 C 80 15, 80 0, 65 -5 C 50 -10, 35 -15, 25 -5 Z" fill="#0f172a"/>
    <!-- Lenses -->
    <path d="M -25 -5 C -15 5, -15 20, -25 30 C -40 40, -60 35, -70 25 C -80 15, -80 0, -65 -5 C -50 -10, -35 -15, -25 -5 Z" fill="#e0f2fe" opacity="0.5"/>
    <path d="M 25 -5 C 15 5, 15 20, 25 30 C 40 40, 60 35, 70 25 C 80 15, 80 0, 65 -5 C 50 -10, 35 -15, 25 -5 Z" fill="#e0f2fe" opacity="0.5"/>
  </g>
</svg>
